<svg width="1728" height="1117" viewBox="0 0 1728 1117" fill="none" xmlns="http://www.w3.org/2000/svg">
<g clip-path="url(#clip0_252_127)">
<mask id="path-1-outside-1_252_127" maskUnits="userSpaceOnUse" x="-67.5757" y="583.991" width="1862" height="261" fill="black">
<rect fill="white" x="-67.5757" y="583.991" width="1862" height="261"/>
<path d="M-59.3764 593.138H-15.6207C-11.0269 593.138 -7.23706 594.975 -4.2511 598.65L119.781 759.892V597.272C119.781 596.124 120.125 595.205 120.815 594.516C121.733 593.597 122.767 593.138 123.915 593.138H159.402C160.551 593.138 161.469 593.597 162.159 594.516C163.077 595.205 163.537 596.124 163.537 597.272V830.177C163.537 832.933 162.159 834.311 159.402 834.311H126.672C122.078 834.311 118.288 832.473 115.302 828.798L-61.7882 597.961C-62.7069 597.042 -62.8218 596.009 -62.1327 594.86C-61.4436 593.712 -60.5249 593.138 -59.3764 593.138ZM213.279 830.866V597.961C213.279 596.813 213.623 595.894 214.312 595.205C215.231 594.286 216.265 593.827 217.413 593.827H250.144C254.737 593.827 258.527 595.664 261.513 599.339L438.948 830.177C439.637 831.325 439.637 832.473 438.948 833.622C438.489 834.541 437.57 835 436.192 835H392.436C387.842 835 384.052 833.162 381.066 829.487L321.462 751.623L261.513 829.487C258.527 833.162 254.737 835 250.144 835H217.413C216.265 835 215.231 834.655 214.312 833.966C213.623 833.048 213.279 832.014 213.279 830.866ZM257.379 668.246V760.581L292.866 714.413L257.379 668.246ZM470.43 593.827H505.917C508.903 593.827 510.396 595.205 510.396 597.961V791.244H606.865C608.243 791.244 609.162 791.818 609.621 792.967C610.31 794.115 610.31 795.149 609.621 796.068L583.781 829.487C580.795 833.162 577.12 835 572.756 835H470.43C469.281 835 468.248 834.655 467.329 833.966C466.64 833.048 466.295 832.014 466.295 830.866V597.961C466.295 596.813 466.64 595.894 467.329 595.205C468.248 594.286 469.281 593.827 470.43 593.827ZM627.233 713.38C627.233 695.694 630.448 679.271 636.88 664.111C643.541 648.722 652.384 635.515 663.409 624.49C674.664 613.235 687.871 604.507 703.03 598.306C718.19 591.874 734.498 588.773 751.954 589.003C769.41 589.233 785.718 592.678 800.878 599.339C816.037 606 829.129 615.073 840.154 626.557C851.409 638.042 860.252 651.479 866.683 666.868C873.115 682.027 876.216 698.22 875.986 715.447C875.756 732.903 872.311 749.211 865.65 764.371C858.989 779.53 849.916 792.737 838.432 803.992C827.177 815.247 813.97 824.09 798.81 830.521C783.651 836.723 767.343 839.823 749.887 839.823C732.66 839.823 716.467 836.608 701.307 830.177C686.378 823.516 673.4 814.558 662.375 803.303C651.35 791.818 642.737 778.382 636.535 762.993C630.334 747.603 627.233 731.066 627.233 713.38ZM671.333 715.102C671.333 726.357 673.515 737.038 677.879 747.144C682.243 757.25 688.1 766.093 695.45 773.673C702.8 781.253 711.299 787.225 720.946 791.589C730.593 795.953 740.929 798.135 751.954 798.135C762.749 797.905 772.97 795.493 782.617 790.9C792.264 786.306 800.648 780.219 807.768 772.639C815.118 764.83 820.861 755.872 824.995 745.766C829.129 735.43 831.082 724.634 830.852 713.38C830.852 702.125 828.67 691.444 824.306 681.338C819.942 671.232 814.085 662.504 806.735 655.154C799.385 647.574 790.771 641.602 780.895 637.238C771.248 632.874 761.027 630.692 750.231 630.692C739.436 630.921 729.215 633.333 719.568 637.927C709.921 642.291 701.537 648.378 694.417 656.187C687.296 663.767 681.669 672.61 677.535 682.716C673.4 692.823 671.333 703.618 671.333 715.102ZM915.467 597.272C915.467 596.124 915.812 595.205 916.501 594.516C917.42 593.597 918.453 593.138 919.602 593.138H1101.52C1102.66 593.138 1103.58 593.597 1104.27 594.516C1105.19 595.205 1105.65 596.124 1105.65 597.272V647.918C1105.65 651.134 1104.62 654.005 1102.55 656.532L1048.11 727.85L1125.98 829.487C1126.67 830.636 1126.67 831.784 1125.98 832.933C1125.52 833.852 1124.71 834.311 1123.57 834.311H1079.81C1075.22 834.311 1071.43 832.473 1068.44 828.798L992.987 730.606C991.379 728.769 991.379 727.046 992.987 725.438L1060.86 636.893H959.568V830.177C959.568 832.933 958.075 834.311 955.089 834.311H919.602C918.453 834.311 917.42 833.966 916.501 833.277C915.812 832.359 915.467 831.325 915.467 830.177V597.272ZM1158.49 593.827H1191.22C1195.81 593.827 1199.6 595.664 1202.59 599.339L1379.68 830.177C1380.6 831.095 1380.71 832.129 1380.02 833.277C1379.56 834.426 1378.64 835 1377.27 835H1333.51C1328.92 835 1325.13 833.162 1322.14 829.487L1262.54 751.623L1202.59 829.487C1199.6 833.162 1195.81 835 1191.22 835H1158.49C1157.34 835 1156.3 834.655 1155.39 833.966C1154.7 833.048 1154.35 832.014 1154.35 830.866V597.961C1154.35 596.813 1154.7 595.894 1155.39 595.205C1156.3 594.286 1157.34 593.827 1158.49 593.827ZM1344.54 597.961C1344.54 595.205 1346.03 593.827 1349.01 593.827H1381.74C1386.11 593.827 1389.78 595.664 1392.77 599.339L1516.8 760.581V597.961C1516.8 595.205 1518.18 593.827 1520.94 593.827H1556.42C1559.41 593.827 1560.9 595.205 1560.9 597.961V830.866C1560.9 832.014 1560.44 833.048 1559.52 833.966C1558.61 834.655 1557.57 835 1556.42 835H1523.69C1519.1 835 1515.31 833.162 1512.32 829.487L1388.64 668.246V762.648C1388.64 764.026 1387.95 764.945 1386.57 765.404C1385.19 765.864 1384.04 765.519 1383.12 764.371L1347.64 718.203C1345.57 715.677 1344.54 712.805 1344.54 709.59V597.961ZM1198.45 668.246V760.581L1233.94 714.413L1198.45 668.246ZM1598.87 597.272C1598.87 596.124 1599.21 595.205 1599.9 594.516C1600.82 593.597 1601.85 593.138 1603 593.138H1752.53C1757.12 593.138 1760.91 594.975 1763.9 598.65L1789.39 632.07C1790.31 633.218 1790.43 634.367 1789.74 635.515C1789.28 636.434 1788.36 636.893 1786.98 636.893H1710.15V830.177C1710.15 832.933 1708.77 834.311 1706.02 834.311H1670.53C1667.77 834.311 1666.4 832.933 1666.4 830.177V636.893H1603C1601.85 636.893 1600.82 636.549 1599.9 635.86C1599.21 634.941 1598.87 633.907 1598.87 632.759V597.272Z"/>
</mask>
<path d="M-59.3764 593.138H-15.6207C-11.0269 593.138 -7.23706 594.975 -4.2511 598.65L119.781 759.892V597.272C119.781 596.124 120.125 595.205 120.815 594.516C121.733 593.597 122.767 593.138 123.915 593.138H159.402C160.551 593.138 161.469 593.597 162.159 594.516C163.077 595.205 163.537 596.124 163.537 597.272V830.177C163.537 832.933 162.159 834.311 159.402 834.311H126.672C122.078 834.311 118.288 832.473 115.302 828.798L-61.7882 597.961C-62.7069 597.042 -62.8218 596.009 -62.1327 594.86C-61.4436 593.712 -60.5249 593.138 -59.3764 593.138ZM213.279 830.866V597.961C213.279 596.813 213.623 595.894 214.312 595.205C215.231 594.286 216.265 593.827 217.413 593.827H250.144C254.737 593.827 258.527 595.664 261.513 599.339L438.948 830.177C439.637 831.325 439.637 832.473 438.948 833.622C438.489 834.541 437.57 835 436.192 835H392.436C387.842 835 384.052 833.162 381.066 829.487L321.462 751.623L261.513 829.487C258.527 833.162 254.737 835 250.144 835H217.413C216.265 835 215.231 834.655 214.312 833.966C213.623 833.048 213.279 832.014 213.279 830.866ZM257.379 668.246V760.581L292.866 714.413L257.379 668.246ZM470.43 593.827H505.917C508.903 593.827 510.396 595.205 510.396 597.961V791.244H606.865C608.243 791.244 609.162 791.818 609.621 792.967C610.31 794.115 610.31 795.149 609.621 796.068L583.781 829.487C580.795 833.162 577.12 835 572.756 835H470.43C469.281 835 468.248 834.655 467.329 833.966C466.64 833.048 466.295 832.014 466.295 830.866V597.961C466.295 596.813 466.64 595.894 467.329 595.205C468.248 594.286 469.281 593.827 470.43 593.827ZM627.233 713.38C627.233 695.694 630.448 679.271 636.88 664.111C643.541 648.722 652.384 635.515 663.409 624.49C674.664 613.235 687.871 604.507 703.03 598.306C718.19 591.874 734.498 588.773 751.954 589.003C769.41 589.233 785.718 592.678 800.878 599.339C816.037 606 829.129 615.073 840.154 626.557C851.409 638.042 860.252 651.479 866.683 666.868C873.115 682.027 876.216 698.22 875.986 715.447C875.756 732.903 872.311 749.211 865.65 764.371C858.989 779.53 849.916 792.737 838.432 803.992C827.177 815.247 813.97 824.09 798.81 830.521C783.651 836.723 767.343 839.823 749.887 839.823C732.66 839.823 716.467 836.608 701.307 830.177C686.378 823.516 673.4 814.558 662.375 803.303C651.35 791.818 642.737 778.382 636.535 762.993C630.334 747.603 627.233 731.066 627.233 713.38ZM671.333 715.102C671.333 726.357 673.515 737.038 677.879 747.144C682.243 757.25 688.1 766.093 695.45 773.673C702.8 781.253 711.299 787.225 720.946 791.589C730.593 795.953 740.929 798.135 751.954 798.135C762.749 797.905 772.97 795.493 782.617 790.9C792.264 786.306 800.648 780.219 807.768 772.639C815.118 764.83 820.861 755.872 824.995 745.766C829.129 735.43 831.082 724.634 830.852 713.38C830.852 702.125 828.67 691.444 824.306 681.338C819.942 671.232 814.085 662.504 806.735 655.154C799.385 647.574 790.771 641.602 780.895 637.238C771.248 632.874 761.027 630.692 750.231 630.692C739.436 630.921 729.215 633.333 719.568 637.927C709.921 642.291 701.537 648.378 694.417 656.187C687.296 663.767 681.669 672.61 677.535 682.716C673.4 692.823 671.333 703.618 671.333 715.102ZM915.467 597.272C915.467 596.124 915.812 595.205 916.501 594.516C917.42 593.597 918.453 593.138 919.602 593.138H1101.52C1102.66 593.138 1103.58 593.597 1104.27 594.516C1105.19 595.205 1105.65 596.124 1105.65 597.272V647.918C1105.65 651.134 1104.62 654.005 1102.55 656.532L1048.11 727.85L1125.98 829.487C1126.67 830.636 1126.67 831.784 1125.98 832.933C1125.52 833.852 1124.71 834.311 1123.57 834.311H1079.81C1075.22 834.311 1071.43 832.473 1068.44 828.798L992.987 730.606C991.379 728.769 991.379 727.046 992.987 725.438L1060.86 636.893H959.568V830.177C959.568 832.933 958.075 834.311 955.089 834.311H919.602C918.453 834.311 917.42 833.966 916.501 833.277C915.812 832.359 915.467 831.325 915.467 830.177V597.272ZM1158.49 593.827H1191.22C1195.81 593.827 1199.6 595.664 1202.59 599.339L1379.68 830.177C1380.6 831.095 1380.71 832.129 1380.02 833.277C1379.56 834.426 1378.64 835 1377.27 835H1333.51C1328.92 835 1325.13 833.162 1322.14 829.487L1262.54 751.623L1202.59 829.487C1199.6 833.162 1195.81 835 1191.22 835H1158.49C1157.34 835 1156.3 834.655 1155.39 833.966C1154.7 833.048 1154.35 832.014 1154.35 830.866V597.961C1154.35 596.813 1154.7 595.894 1155.39 595.205C1156.3 594.286 1157.34 593.827 1158.49 593.827ZM1344.54 597.961C1344.54 595.205 1346.03 593.827 1349.01 593.827H1381.74C1386.11 593.827 1389.78 595.664 1392.77 599.339L1516.8 760.581V597.961C1516.8 595.205 1518.18 593.827 1520.94 593.827H1556.42C1559.41 593.827 1560.9 595.205 1560.9 597.961V830.866C1560.9 832.014 1560.44 833.048 1559.52 833.966C1558.61 834.655 1557.57 835 1556.42 835H1523.69C1519.1 835 1515.31 833.162 1512.32 829.487L1388.64 668.246V762.648C1388.64 764.026 1387.95 764.945 1386.57 765.404C1385.19 765.864 1384.04 765.519 1383.12 764.371L1347.64 718.203C1345.57 715.677 1344.54 712.805 1344.54 709.59V597.961ZM1198.45 668.246V760.581L1233.94 714.413L1198.45 668.246ZM1598.87 597.272C1598.87 596.124 1599.21 595.205 1599.9 594.516C1600.82 593.597 1601.85 593.138 1603 593.138H1752.53C1757.12 593.138 1760.91 594.975 1763.9 598.65L1789.39 632.07C1790.31 633.218 1790.43 634.367 1789.74 635.515C1789.28 636.434 1788.36 636.893 1786.98 636.893H1710.15V830.177C1710.15 832.933 1708.77 834.311 1706.02 834.311H1670.53C1667.77 834.311 1666.4 832.933 1666.4 830.177V636.893H1603C1601.85 636.893 1600.82 636.549 1599.9 635.86C1599.21 634.941 1598.87 633.907 1598.87 632.759V597.272Z" stroke="#2B2B2B" stroke-opacity="0.05" stroke-width="8.44444" mask="url(#path-1-outside-1_252_127)"/>
<line x1="304.5" y1="1117" x2="304.5" y2="2.18556e-08" stroke="#2B2B2B"/>
<line x1="1574" y1="200" x2="1584" y2="200" stroke="#2B2B2B" stroke-width="2"/>
<line x1="1574" y1="430" x2="1584" y2="430" stroke="#2B2B2B" stroke-width="2"/>
<line x1="1574" y1="910" x2="1584" y2="910" stroke="#2B2B2B" stroke-width="2"/>
<line x1="305" y1="423.5" x2="1422" y2="423.5" stroke="#2B2B2B"/>
<rect x="1574" y="501" width="10" height="10" fill="#2B2B2B"/>
<rect x="1574" y="517" width="3" height="3" fill="#2B2B2B"/>
<rect x="1574" y="527" width="3" height="3" fill="#2B2B2B"/>
<rect x="1574" y="727" width="3" height="3" fill="#2B2B2B"/>
<line x1="144" y1="200" x2="154" y2="200" stroke="#2B2B2B" stroke-width="2"/>
<line x1="144" y1="430" x2="154" y2="430" stroke="#2B2B2B" stroke-width="2"/>
<line x1="144" y1="910" x2="154" y2="910" stroke="#2B2B2B" stroke-width="2"/>
<rect x="144" y="501" width="10" height="10" fill="#2B2B2B"/>
<rect x="144" y="517" width="3" height="3" fill="#2B2B2B"/>
<rect x="144" y="527" width="3" height="3" fill="#2B2B2B"/>
<rect x="144" y="727" width="3" height="3" fill="#2B2B2B"/>
<rect x="305" y="424" width="10" height="10" fill="#2B2B2B"/>
<rect width="24" height="24" transform="translate(142 352)" fill="white"/>
<path d="M145.064 363.489V356.596L156.809 371.149H150.936L145.064 363.489Z" fill="#1E1E1E"/>
<path d="M162.681 356.596L155.021 366.043H160.894L162.681 363.489V356.596Z" fill="#1E1E1E"/>
<path d="M1237 103.149V-96L1576.29 324.426H1406.65L1237 103.149Z" stroke="black" stroke-opacity="0.05" stroke-width="4.22"/>
<path d="M1745.94 -96L1524.66 176.908H1694.3L1745.94 103.149V-96Z" stroke="black" stroke-opacity="0.05" stroke-width="4.22"/>
</g>
<defs>
<clipPath id="clip0_252_127">
<rect width="1728" height="1117" fill="white"/>
</clipPath>
</defs>
</svg>
